<svg xmlns="http://www.w3.org/2000/svg" xmlns:xlink="http://www.w3.org/1999/xlink" viewBox="0 0 101 101" fill="#fff"
     fill-rule="evenodd" stroke="#000" stroke-linecap="round" stroke-linejoin="round">
    <use xlink:href="#A" x=".5" y=".5"/>
    <symbol id="A" overflow="visible">
        <g fill-rule="nonzero" stroke="none">
            <path d="M46.405.145c22.15-1.532 36.837 9.282 45.234 22.459 4.211 6.607 8.342 16.641 8.361 26.951.02 11.202-3.617 20.903-8.361 28.02-4.876 7.316-11.183 13.358-19.08 17.326-13.201 6.632-31.65 6.814-43.734.428C15.368 88.218 5.02 78.067 1.17 60.464-.371 53.42-.548 44.317 1.599 36.508c.504-1.832 1.419-3.76 2.144-5.561 3.482-8.656 9.41-16.184 16.722-21.39 2.938-2.092 6.502-4.172 9.647-5.561C34.025 2.267 40.613.546 46.405.145z"/>
            <path d="M88.42 50.801c0 20.887-16.971 37.818-37.904 37.818S12.612 71.688 12.612 50.801s16.97-37.819 37.904-37.819S88.42 29.914 88.42 50.801zM46.405.145c22.15-1.532 36.837 9.282 45.234 22.459 4.211 6.607 8.342 16.641 8.361 26.951.02 11.202-3.617 20.903-8.361 28.02-4.876 7.316-11.183 13.358-19.08 17.326-13.201 6.632-31.65 6.814-43.734.428C15.368 88.218 5.02 78.067 1.17 60.464-.371 53.42-.548 44.317 1.599 36.508c.504-1.832 1.419-3.76 2.144-5.561 3.482-8.656 9.41-16.184 16.722-21.39 2.938-2.092 6.502-4.172 9.647-5.561C34.025 2.267 40.613.546 46.405.145zm-7.503 3.636c-8.227 2.128-14.26 5.941-19.509 10.053-7.569 5.93-12.394 14.204-15.221 24.17-3.145 11.088-1.125 24.505 3.216 32.94 4.501 8.748 10.545 15.538 19.08 20.32 8.303 4.653 19.982 7.64 32.157 5.347 10.817-2.037 19.033-6.739 25.726-13.689 8.955-9.3 16.152-26.429 11.362-44.491-1.28-4.827-2.954-9.858-5.574-14.117-1.416-2.301-3.493-4.565-5.574-6.845C76.71 8.865 64.016 1.449 47.691 2.498c-3.107.2-5.837.52-8.79 1.284z"
                  fill="#000"/>
        </g>
        <g fill="none" stroke="#fff" stroke-linecap="butt" stroke-linejoin="miter" stroke-width="1.788">
            <path d="M52.808 96.157l43.8-43.7M48.979 92.696L92.97 48.805M45.15 89.236l44.183-44.082M41.321 85.775l44.374-44.273M37.492 82.315l44.565-44.464M33.663 78.854l44.756-44.655M29.834 75.393l44.947-44.845M26.004 71.932l45.138-45.036M22.175 68.472l45.328-45.227M18.346 65.01l45.52-45.417M14.517 61.55l45.712-45.608M10.688 58.089L56.591 12.29M6.859 54.628L52.953 8.639M3.03 51.167l46.285-46.18"/>
            <path d="M3.015 51.609L47.69 96.186M6.638 47.943L51.4 92.606m-41.139-48.33l44.849 44.75M13.884 40.61L58.82 85.447M17.507 36.943L62.53 81.866m-41.4-48.589l45.11 45.01M24.752 29.61l45.197 45.097M28.375 25.944l45.284 45.183m-41.661-48.85l45.371 45.27M35.621 18.611l45.458 45.356M39.244 14.944l45.545 45.443M42.867 11.278l45.632 45.53M46.49 7.612l45.719 45.617M50.113 3.945l45.806 45.703"/>
        </g>
        <g fill-rule="nonzero">
            <path d="M81.992 17.684c-3.942-3.933-8.789-7.478-14.578-9.625-6.001-2.226-12.789-4.103-20.795-3.422-12.753 1.085-21.707 6.794-28.513 13.476-4.767 4.68-8.352 10.415-10.719 17.112-3.475 9.833-3.264 21.439.643 31.443 3.333 8.533 8.788 15.416 16.507 20.748 7.257 5.013 17.672 8.9 29.37 7.914 14.248-1.201 24.673-8.494 31.514-16.898 1.75-2.15 3.491-4.58 4.502-7.486.991-2.094 1.476-3.518 1.93-4.278 1.9-4.248 2.907-8.73 3.216-13.689.95-15.253-4.932-27.167-13.077-35.293zm-4.199 46.47l-.08.172c-.707 2.018-1.924 3.705-3.148 5.199-4.784 5.836-12.074 10.9-22.038 11.734-8.181.684-15.464-2.015-20.539-5.496-4.41-3.025-7.762-6.769-10.113-11.268-.143-.271-1.508-3.409-1.512-3.547-1.862-5.763-2.024-15.03-.112-20.591 1.276-3.711 3.401-7.727 6.217-10.909 3.887-4.393 7.778-7.208 13.935-9.198 2.811-.909 5.328-1.833 8.79-1.925 8.441-.224 17.037 3.557 21.652 7.7 4.241 3.807 9.075 11.223 10.29 18.181 1.251 7.161-.084 14.153-3.342 19.947z"
                  fill="#000" stroke="none"/>
            <path d="M63.12 71.025c-2.079 0-3.903-1.313-4.539-3.268l-2.315-7.038H44.684l-2.151 6.974a4.8 4.8 0 0 1-4.577 3.327c-.502 0-1-.079-1.481-.235-2.497-.748-3.915-3.43-3.15-5.975l9.776-30.895c.635-1.965 2.503-3.336 4.545-3.336h5.198c2.053 0 3.921 1.348 4.544 3.277l10.281 30.884c.822 2.525-.539 5.236-3.033 6.045a4.91 4.91 0 0 1-1.516.241h0z"
                  stroke-linejoin="miter" stroke-width="5.363"/>
            <path d="M24.729 20.731l-.012-.017c-1.219-1.667-.861-3.999.934-5.306s4.102-.94 5.321.727l.012.017c1.219 1.667.861 3.999-.934 5.306s-4.102.94-5.321-.727zm4.621-3.365l-.012-.017c-.613-.838-1.753-1.126-2.642-.478-.881.642-.95 1.784-.337 2.622l.012.017c.613.838 1.753 1.126 2.634.484.889-.648.958-1.79.345-2.628zm7.132-7.561l1.832-.586 5.136 5.957-2.038.652-.893-1.062-2.646.847-.097 1.379-1.999.64.703-7.827zm3.014 3.661l-1.39-1.701-.149 2.193 1.538-.492zm7.254-1.868l.016-4.035 2.027.008-.016 3.994c-.004 1.037.519 1.532 1.321 1.535s1.329-.467 1.333-1.473l.016-4.045 2.027.008-.016 3.984c-.009 2.32-1.341 3.332-3.388 3.323s-3.33-1.05-3.321-3.299zm14.047-.705l-2.067-.629.511-1.669 6.042 1.84-.511 1.669-2.067-.629-1.592 5.204-1.909-.581 1.592-5.204zm9.884 1.87l1.662 1.103-1.493 2.239 2.133 1.416 1.494-2.239 1.662 1.103-3.991 5.983-1.662-1.103 1.516-2.274-2.133-1.416-1.516 2.274-1.662-1.103 3.991-5.983zm5.87 65.405l.013.016c1.282 1.619 1.014 3.964-.73 5.338s-4.063 1.096-5.345-.523l-.013-.016c-1.282-1.619-1.014-3.964.73-5.338s4.063-1.096 5.345.523zm-4.489 3.539l.013.016c.644.814 1.795 1.058 2.659.377.856-.675.881-1.819.236-2.633l-.013-.016c-.644-.814-1.795-1.058-2.651-.383-.864.681-.889 1.826-.244 2.639zm-6.779 7.847l-1.805.666-5.394-5.726 2.007-.741.939 1.022 2.606-.962.036-1.382 1.969-.727-.358 7.85zm-3.173-3.525l1.464 1.638.052-2.198-1.515.56zm-7.157 2.159l.178 4.031-2.025.089-.177-3.99c-.046-1.036-.592-1.505-1.394-1.47s-1.305.53-1.261 1.535l.179 4.041-2.025.089-.176-3.98c-.103-2.318 1.179-3.392 3.224-3.482s3.377.889 3.476 3.135zm-14.071 1.318l2.086.562-.456 1.685-6.101-1.643.456-1.685 2.086.562 1.421-5.254 1.928.519-1.421 5.254zm-9.862-1.465l-1.712-1.024 1.386-2.307-2.198-1.314-1.386 2.307-1.712-1.024 3.703-6.165 1.712 1.024-1.407 2.343 2.198 1.314 1.407-2.343 1.712 1.024-3.703 6.164z"
                  stroke="none"/>
        </g>
    </symbol>
</svg>
